<?xml version="1.0" standalone="no"?>
<!DOCTYPE svg PUBLIC "-//W3C//DTD SVG 20010904//EN"
 "http://www.w3.org/TR/2001/REC-SVG-20010904/DTD/svg10.dtd">
<svg version="1.0" xmlns="http://www.w3.org/2000/svg"
 width="240.000000pt" height="240.000000pt" viewBox="0 0 240.000000 240.000000"
 preserveAspectRatio="xMidYMid meet">
<metadata>
Created by potrace 1.14, written by Peter Selinger 2001-2017
</metadata>
<g transform="translate(0.000000,240.000000) scale(0.100000,-0.100000)"
fill="#000000" stroke="none">
<path d="M1284 1905 c-4 -11 -33 -123 -65 -250 -31 -126 -109 -438 -173 -692
-64 -254 -116 -468 -116 -476 0 -13 15 -15 85 -14 46 1 88 7 94 12 5 6 34 109
65 230 30 121 109 437 175 702 67 265 121 489 121 497 0 12 -17 14 -90 13 -81
-1 -91 -3 -96 -22z"/>
<path d="M466 1473 l-356 -177 0 -97 0 -98 78 -37 c42 -20 196 -96 342 -169
146 -73 275 -135 286 -139 21 -6 21 -3 20 91 l-1 98 -250 127 c-137 69 -252
127 -254 127 -2 1 111 58 251 127 l254 127 1 98 c0 55 -3 99 -7 99 -4 0 -168
-80 -364 -177z"/>
<path d="M1567 1643 c-2 -5 -4 -48 -3 -98 l1 -90 250 -127 c138 -69 252 -127
254 -127 2 -1 -111 -58 -251 -127 l-254 -126 -1 -99 c0 -93 1 -99 19 -93 10 3
139 65 286 138 147 73 302 150 345 170 l77 38 0 97 0 98 -356 176 c-195 97
-357 177 -359 177 -2 0 -6 -3 -8 -7z"/>
</g>
</svg>
